<?xml version="1.0" encoding="UTF-8"?>
<!DOCTYPE svg PUBLIC "-//W3C//DTD SVG 1.1//EN" "http://www.w3.org/Graphics/SVG/1.1/DTD/svg11.dtd">
<svg version="1.1" xmlns="http://www.w3.org/2000/svg" xmlns:xlink="http://www.w3.org/1999/xlink" x="0px" y="0px" width="128" height="128" viewBox="0, 0, 128, 128">
  <g id="Background">
    <rect x="0" y="0" width="128" height="128" fill="#000000" fill-opacity="0"/>
  </g>
  <g id="Background">
    <path d="M18.093,6 L109.907,6 C116.561,6 122,11.439 122,18.093 L122,109.907 C122,116.561 116.561,122 109.907,122 L18.093,122 C11.439,122 6,116.561 6,109.907 L6,18.093 C6,11.439 11.439,6 18.093,6" fill="#727272"/>
    <path d="M64.988,114.149 L17.834,36.361 L40.782,36.361 C41.38,32.762 42.413,29.656 43.879,27.04 C45.385,24.354 47.24,22.158 49.432,20.455 C51.628,18.746 54.09,17.503 56.808,16.714 C59.529,15.929 62.397,15.536 65.411,15.536 C72.951,15.536 78.788,17.157 82.916,20.403 C87.045,23.647 89.114,28.09 89.114,33.726 C89.114,34.612 89.041,35.488 88.895,36.361 L112.14,36.361 z M59.242,36.361 L68.17,36.361 C68.234,35.951 68.266,35.535 68.266,35.105 C68.266,33.529 67.918,32.416 67.233,31.762 C66.544,31.104 65.645,30.781 64.53,30.781 C63.415,30.781 62.297,31.319 61.182,32.401 C60.383,33.178 59.735,34.497 59.242,36.361 z M87.757,40.225 C87.456,40.937 87.105,41.636 86.702,42.334 C85.096,45.121 83.277,47.628 81.245,49.856 C80.391,50.774 79.573,51.623 78.788,52.413 C77.999,53.199 77.313,54.048 76.725,54.967 C76.13,55.885 75.655,56.903 75.294,58.018 C74.933,59.131 74.756,60.475 74.756,62.051 L74.756,63.721 L55.579,63.721 L55.579,61.556 C55.579,60.114 55.711,58.708 55.972,57.328 C56.236,55.953 56.679,54.528 57.301,53.053 C57.921,51.578 58.807,50.02 59.954,48.38 C61.105,46.742 62.561,44.905 64.329,42.874 C65.055,42.097 65.763,41.211 66.454,40.225 L24.694,40.225 L64.988,106.696 L105.281,40.225 z M55.579,68.147 L74.756,68.147 L65.165,84.469 z" fill="#EBEDED"/>
  </g>
  <defs/>
</svg>
